<svg width="47.99999999999999" height="47.99999999999999" xmlns="http://www.w3.org/2000/svg" version="1.1">

 <g>
  <title>Layer 1</title>
  <g id="surface1">
   <path id="svg_1" fill="#000" fill-rule="nonzero" d="m13.52344,13.00391c0,-7.66407 6.38672,-12.1875 10.47656,-13.00391l0,4.52344c-2.23437,0.6914 -4.91797,4.21094 -5.04687,8.04297l5.04687,0l0,4.76562c0,3.6836 -2.98437,6.66797 -6.66797,6.66797l-3.80859,0l0,-10.99609zm-13.52344,0c0,-7.66407 6.38672,-12.1875 10.47656,-13.00391l0,4.52344c-2.23437,0.6914 -4.91797,4.21094 -5.04687,8.04297l4.98437,0l0,4.76562c0,3.6836 -2.98437,6.66797 -6.66797,6.66797l-3.74609,0l0,-10.99609zm0,0"/>
  </g>
  <g transform="rotate(180 36 36)" id="svg_3">
   <path id="svg_2" fill="#000" fill-rule="nonzero" d="m37.52344,37.00391c0,-7.66407 6.38673,-12.1875 10.47656,-13.00391l0,4.52344c-2.23437,0.6914 -4.91797,4.21094 -5.04687,8.04297l5.04687,0l0,4.76562c0,3.6836 -2.98437,6.66797 -6.66797,6.66797l-3.80859,0l0,-10.99609zm-13.52344,0c0,-7.66407 6.38672,-12.1875 10.47656,-13.00391l0,4.52344c-2.23437,0.6914 -4.91797,4.21094 -5.04687,8.04297l4.98437,0l0,4.76562c0,3.6836 -2.98437,6.66797 -6.66797,6.66797l-3.74609,0l0,-10.99609zm0,0"/>
  </g>
 </g>
</svg>